<svg width="197" height="94" viewBox="0 0 197 94" fill="none" xmlns="http://www.w3.org/2000/svg">
    <path d="M174.037 29.2724H162.57L138.389 0.888916H80.6817L54.3491 26.8746L14.4482 2.67826C12.3184 1.38151 9.55107 2.06971 8.2616 4.19231C6.97214 6.32217 7.65333 9.08955 9.77588 10.3791L40.9329 29.2724H22.7139C10.5726 29.2724 0.69873 39.4871 0.69873 52.0488V55.5261C0.69873 68.0879 10.5726 78.3025 22.7139 78.3025H26.0388C29.7478 87.1479 38.4263 93.0739 48.2421 93.0739C58.058 93.0739 66.744 87.1479 70.4458 78.3025H129.218C132.919 87.1479 141.605 93.0739 151.421 93.0739C161.237 93.0739 169.915 87.1479 173.617 78.3025H174.037C186.171 78.3025 196.052 68.0879 196.052 55.5261V52.0488C196.052 39.4871 186.171 29.2724 174.037 29.2724ZM187.041 55.5261C187.041 63.1182 181.209 69.2977 174.037 69.2977H166.887L166.025 72.6881C164.323 79.3819 158.317 84.0545 151.421 84.0545C144.525 84.0545 138.519 79.3819 136.817 72.6881L135.955 69.2977H63.716L62.8465 72.6881C61.1441 79.3819 55.1386 84.0545 48.2421 84.0545C41.3457 84.0545 35.3405 79.3819 33.6381 72.6881L32.7761 69.2977H22.7139C15.5421 69.2977 9.71044 63.1182 9.71044 55.5261V52.0488C9.71044 44.4567 15.5421 38.2845 22.7139 38.2845H55.6168L55.6819 38.2192L74.8719 49.8538L66.2949 49.4698C63.7884 49.3611 61.6949 51.2809 61.5862 53.7658C61.4775 56.2506 63.397 58.3587 65.8818 58.4746L92.0839 59.6554C92.1563 59.6554 92.2217 59.6554 92.2869 59.6554H92.294C92.3737 59.6554 92.4534 59.6409 92.5331 59.6337C92.7432 59.6192 92.9532 59.6192 93.156 59.5758C93.4096 59.5251 93.656 59.4453 93.9024 59.3584C93.9241 59.3439 93.953 59.3439 93.9819 59.3294C94.25 59.2207 94.5108 59.0831 94.7499 58.931C94.7861 58.902 94.8295 58.8586 94.873 58.8296C95.0686 58.6919 95.2571 58.547 95.4237 58.3804C95.4382 58.3732 95.4455 58.3659 95.4527 58.3587C95.6193 58.1921 95.7714 58.0182 95.909 57.8298C95.938 57.7936 95.9598 57.7574 95.9815 57.7284C96.1192 57.5256 96.2494 57.3155 96.3508 57.0982C96.387 57.0112 96.4232 56.9171 96.4594 56.8374C96.5173 56.6707 96.5825 56.5113 96.626 56.3375C96.6477 56.236 96.6697 56.1419 96.6914 56.0333C96.7276 55.8666 96.7491 55.6928 96.7636 55.5117C96.7708 55.461 96.7926 55.4174 96.7926 55.3595C96.7926 55.3088 96.7855 55.2581 96.7855 55.2146C96.7855 55.0263 96.7708 54.8379 96.7491 54.6423C96.7418 54.5481 96.7347 54.4612 96.713 54.367C96.6768 54.1569 96.6261 53.9468 96.5609 53.7367C96.5392 53.686 96.5248 53.6281 96.5103 53.5701C96.4162 53.3311 96.3073 53.0993 96.1697 52.8675L96.1336 52.8022L82.9201 30.3446C81.6523 28.2002 78.8923 27.4758 76.748 28.7436C74.6038 30.0041 73.8866 32.7642 75.1471 34.9086L79.3344 42.0298L62.2887 31.6921L84.3834 9.9009H134.231L158.404 38.2845H174.037C181.209 38.2845 187.041 44.4567 187.041 52.0488V55.5261Z" fill="#6c6877"/>
</svg>
