<svg width="137" height="130" viewBox="0 0 137 130" fill="none" xmlns="http://www.w3.org/2000/svg">
    <path d="M95.2187 129.19H10.549C4.88402 129.19 0.269531 124.01 0.269531 117.65V96.2423C0.269531 89.8672 4.88402 84.6875 10.549 84.6875H72.5446L93.0165 9.28762C94.3784 4.27449 98.9493 0.768188 104.143 0.768188C105.165 0.768188 106.186 0.905875 107.179 1.17392L127.839 6.78108C130.816 7.58521 133.294 9.51219 134.83 12.1781C136.366 14.8586 136.757 17.9737 135.953 20.9512L108.881 120.67C107.526 125.662 102.948 129.161 97.7542 129.161C97.3557 129.161 96.9355 129.139 96.537 129.088C96.0951 129.161 95.6606 129.19 95.2187 129.19ZM10.549 93.8155C10.2592 93.8155 9.38983 94.6485 9.38983 96.2423V117.65C9.38983 119.229 10.2592 120.069 10.549 120.069H95.2113L96.2038 119.801L97.2834 119.982C98.5439 120.236 99.7537 119.461 100.072 118.28L127.144 18.5605C127.317 17.9302 127.231 17.2782 126.912 16.7204C126.586 16.1626 126.064 15.7643 125.449 15.5831L104.781 9.97598C103.492 9.62825 102.159 10.4178 101.818 11.6783L79.5132 93.8155H10.549Z" fill="#FEFEFE"/>
</svg>
