<svg width="124" height="125" viewBox="0 0 124 125" fill="none" xmlns="http://www.w3.org/2000/svg">
<path d="M91.0158 14.0286C70.4133 13.42 66.3203 31.9512 65.9509 44.8753C64.8642 44.6724 63.756 44.5565 62.6114 44.5565C60.5975 44.5565 58.6632 44.9042 56.8521 45.5272C55.425 44.158 54.7443 42.3325 54.5487 40.1229C53.9692 33.7479 64.0241 29.3795 64.3139 20.0849C64.6253 10.3919 59.8946 2.8867 48.2532 0.822041C37.6984 -1.05426 15.4084 1.75653 14.4666 33.2914C13.8509 53.9018 32.4033 57.9949 45.3269 58.3571C45.0444 59.6249 44.8777 60.9361 44.8777 62.298C44.8777 64.4352 45.2688 66.4636 45.9643 68.3616C44.5879 69.7888 42.7696 70.4625 40.5602 70.6653C34.1925 71.2449 29.8242 61.1824 20.5227 60.8854C10.8299 60.5811 3.32491 65.3117 1.26757 76.9535C-0.608674 87.5158 2.2023 109.8 33.7362 110.741C54.4835 111.357 58.4967 92.5507 58.8082 79.6122C60.0397 79.8802 61.3074 80.0323 62.6114 80.0323C64.4514 80.0323 66.2263 79.7498 67.8924 79.2355C69.3268 80.6119 70.0075 82.4375 70.2104 84.6543C70.7899 91.0294 60.7279 95.3905 60.4381 104.692C60.1266 114.385 64.857 121.89 76.4984 123.948C87.0532 125.824 109.351 123.013 110.285 91.4785C110.894 71.0928 92.7472 66.8693 79.8453 66.4274C80.1641 65.0944 80.3522 63.7252 80.3522 62.298C80.3522 60.0813 79.9249 57.9732 79.186 56.0172C80.5044 54.8508 82.1923 54.2857 84.1844 54.1046C90.5593 53.5251 94.9275 63.5876 104.229 63.8846C113.922 64.1888 121.42 59.4582 123.491 47.8165C125.36 37.2614 122.55 14.9703 91.0158 14.0286ZM62.3723 67.0793C59.7861 67.0793 57.6851 64.9785 57.6851 62.385C57.6851 59.7915 59.7861 57.6906 62.3723 57.6906C64.9657 57.6906 67.0736 59.7915 67.0736 62.385C67.0736 64.9785 64.9657 67.0793 62.3723 67.0793Z" fill="#FEFEFE"/>
</svg>
